<?xml version="1.0" encoding="UTF-8" standalone="no"?>
<!-- Created with Inkscape (http://www.inkscape.org/) -->

<svg
   width="32"
   height="32"
   viewBox="0 0 8.4666665 8.4666669"
   version="1.1"
   id="svg5"
   xmlns="http://www.w3.org/2000/svg"
   xmlns:svg="http://www.w3.org/2000/svg">
  <defs
     id="defs2" />
  <g
     id="layer1">
    <path
       id="path1054"
       style="fill:#ffffff;stroke-width:0.813824"
       d="M 5.1686767,0.55603851 A 3.5617531,3.5617531 0 0 0 4.7232261,0.52813325 3.5617531,3.5617531 0 0 0 1.1616863,4.0901895 3.5617531,3.5617531 0 0 0 4.7232261,7.6517293 3.5617531,3.5617531 0 0 0 7.6729167,6.0854167 3.0427083,3.0427083 0 0 1 7.4930828,6.1484618 3.0427083,3.0427083 0 0 1 7.2734578,6.2068562 3.0427083,3.0427083 0 0 1 7.0496988,6.2492311 3.0427083,3.0427083 0 0 1 6.823873,6.2750692 3.0427083,3.0427083 0 0 1 6.5964967,6.2833374 3.0427083,3.0427083 0 0 1 6.3691204,6.2750692 3.0427083,3.0427083 0 0 1 6.1427776,6.2492311 3.0427083,3.0427083 0 0 1 5.9190186,6.2068562 3.0427083,3.0427083 0 0 1 5.6993938,6.1484618 3.0427083,3.0427083 0 0 1 5.4844199,6.0730143 3.0427083,3.0427083 0 0 1 5.2761637,5.9820638 3.0427083,3.0427083 0 0 1 5.0751425,5.8756103 3.0427083,3.0427083 0 0 1 4.8823894,5.7546875 3.0427083,3.0427083 0 0 1 4.6994549,5.6198119 3.0427083,3.0427083 0 0 1 4.5268555,5.4709838 3.0427083,3.0427083 0 0 1 4.365625,5.3102703 3.0427083,3.0427083 0 0 1 4.2173136,5.137671 3.0427083,3.0427083 0 0 1 4.0824381,4.9547365 3.0427083,3.0427083 0 0 1 3.9609985,4.7619833 3.0427083,3.0427083 0 0 1 3.855062,4.5609619 3.0427083,3.0427083 0 0 1 3.7641115,4.3521892 3.0427083,3.0427083 0 0 1 3.6886637,4.137732 3.0427083,3.0427083 0 0 1 3.6297527,3.9175905 3.0427083,3.0427083 0 0 1 3.587378,3.6943483 3.0427083,3.0427083 0 0 1 3.5620566,3.4680054 3.0427083,3.0427083 0 0 1 3.5537884,3.2406291 3.0427083,3.0427083 0 0 1 3.5620566,3.0132528 3.0427083,3.0427083 0 0 1 3.587378,2.7874267 3.0427083,3.0427083 0 0 1 3.6297527,2.5636679 3.0427083,3.0427083 0 0 1 3.6886637,2.344043 3.0427083,3.0427083 0 0 1 3.7641115,2.1290691 3.0427083,3.0427083 0 0 1 3.855062,1.9202963 3.0427083,3.0427083 0 0 1 3.9609985,1.719275 3.0427083,3.0427083 0 0 1 4.0824381,1.5265219 3.0427083,3.0427083 0 0 1 4.2173136,1.3435873 3.0427083,3.0427083 0 0 1 4.365625,1.1709881 3.0427083,3.0427083 0 0 1 4.5268555,1.0102743 3.0427083,3.0427083 0 0 1 4.6994549,0.86196298 3.0427083,3.0427083 0 0 1 4.8823894,0.72657075 3.0427083,3.0427083 0 0 1 5.0751425,0.60564788 3.0427083,3.0427083 0 0 1 5.1686767,0.55603851 Z" />
  </g>
</svg>
