<?xml version="1.0" encoding="UTF-8" standalone="no"?>
<!-- Created with Inkscape (http://www.inkscape.org/) -->

<svg
   width="32"
   height="32"
   viewBox="0 0 8.4666665 8.4666669"
   version="1.1"
   id="svg5"
   xmlns="http://www.w3.org/2000/svg"
   xmlns:svg="http://www.w3.org/2000/svg">
  <defs
     id="defs2" />
  <g
     id="layer1">
    <g
       id="g2776"
       transform="matrix(1.0754891,0,0,1.0754185,-0.39070938,-0.46181818)">
      <path
         id="rect996"
         style="fill:#000000;stroke-width:5.59718"
         d="m 16.25,1.6230469 c -0.554,0 -1,0.446 -1,1 v 3.3417969 l 2,-0.035156 V 2.6230469 c 0,-0.554 -0.446,-1 -1,-1 z M 6.4375,5.6875 c -0.2555813,0 -0.5111627,0.0971 -0.7070312,0.2929688 -0.3917372,0.391737 -0.3917373,1.0223253 0,1.4140624 L 8.0703125,9.734375 9.484375,8.3203125 7.1445312,5.9804688 C 6.9486627,5.7846001 6.6930813,5.6875 6.4375,5.6875 Z m 19.625,0 c -0.255581,0 -0.511163,0.0971 -0.707031,0.2929688 l -2.335938,2.3359374 1.414063,1.4140626 2.335937,-2.3359376 c 0.391737,-0.3917368 0.391737,-1.0223253 0,-1.4140624 C 26.573663,5.7846001 26.318081,5.6875 26.0625,5.6875 Z M 2.3730469,15.5 c -0.554,0 -1,0.446 -1,1 0,0.554 0.446,1 1,1 h 3.3417969 v -2 z m 24.4492191,0 -0.03711,2 h 3.341797 c 0.554,0 1,-0.446 1,-1 0,-0.554 -0.446,-1 -1,-1 z M 8.0683594,23.267578 5.7304688,25.605469 c -0.3917373,0.391737 -0.3917373,1.022325 0,1.414062 0.3917371,0.391737 1.0223253,0.391737 1.4140624,0 l 2.3378907,-2.33789 z m 16.3632816,0 -1.414063,1.414063 2.337891,2.33789 c 0.391737,0.391737 1.022325,0.391737 1.414062,0 0.391737,-0.391737 0.391737,-1.022325 0,-1.414062 z M 15.25,27.037109 v 3.341797 c 0,0.554 0.446,1 1,1 0.554,0 1,-0.446 1,-1 v -3.341797 z"
         transform="scale(0.26458333)" />
      <path
         id="path870"
         style="fill:#000000;stroke-width:2.51339"
         d="M 16.25,6.5019531 A 9.9999997,9.9999997 0 0 0 6.25,16.5 a 9.9999997,9.9999997 0 0 0 10,10 9.9999997,9.9999997 0 0 0 10,-10 9.9999997,9.9999997 0 0 0 -10,-9.9980469 z m 0,1.5742188 A 8.4239302,8.4239302 0 0 1 24.673828,16.5 8.4239302,8.4239302 0 0 1 16.25,24.925781 8.4239302,8.4239302 0 0 1 7.8261719,16.5 8.4239302,8.4239302 0 0 1 16.25,8.0761719 Z"
         transform="scale(0.26458333)" />
    </g>
  </g>
</svg>
